<svg width="14" height="14" viewBox="0 0 14 14" fill="none" xmlns="http://www.w3.org/2000/svg">
<path d="M9.15835 7.40829L5.65835 10.9083C5.54169 11.025 5.42502 11.0833 5.25002 11.0833C5.07502 11.0833 4.95835 11.025 4.84169 10.9083C4.60835 10.675 4.60835 10.325 4.84169 10.0916L7.93335 6.99996L4.84169 3.90829C4.60835 3.67496 4.60835 3.32496 4.84169 3.09163C5.07502 2.85829 5.42502 2.85829 5.65835 3.09163L9.15835 6.59163C9.39169 6.82496 9.39169 7.17496 9.15835 7.40829Z" fill="black"/>
<mask id="mask0" mask-type="alpha" maskUnits="userSpaceOnUse" x="4" y="2" width="6" height="10">
<path d="M9.15835 7.40829L5.65835 10.9083C5.54169 11.025 5.42502 11.0833 5.25002 11.0833C5.07502 11.0833 4.95835 11.025 4.84169 10.9083C4.60835 10.675 4.60835 10.325 4.84169 10.0916L7.93335 6.99996L4.84169 3.90829C4.60835 3.67496 4.60835 3.32496 4.84169 3.09163C5.07502 2.85829 5.42502 2.85829 5.65835 3.09163L9.15835 6.59163C9.39169 6.82496 9.39169 7.17496 9.15835 7.40829Z" fill="white"/>
</mask>
<g mask="url(#mask0)">
<path fill-rule="evenodd" clip-rule="evenodd" d="M0 0H14V14H0V0Z" fill="#002868"/>
</g>
</svg>
